<mxfile host="app.diagrams.net" modified="2023-03-13T10:15:50.505Z" agent="5.0 (Windows NT 10.0; Win64; x64) AppleWebKit/537.36 (KHTML, like Gecko) Chrome/110.0.0.0 Safari/537.36" etag="4d7n-bZxNEIOMduoZ3lC" version="20.8.17" type="github">
  <diagram name="第 1 页" id="oDgHPKQ7fmd44I1gppoe">
    <mxGraphModel dx="1434" dy="834" grid="1" gridSize="10" guides="1" tooltips="1" connect="1" arrows="1" fold="1" page="1" pageScale="1" pageWidth="1654" pageHeight="1169" math="0" shadow="0">
      <root>
        <mxCell id="0" />
        <mxCell id="1" parent="0" />
        <mxCell id="Nqncb38tdzn1ghxaWQQk-2" style="edgeStyle=orthogonalEdgeStyle;rounded=0;orthogonalLoop=1;jettySize=auto;html=1;fontSize=16;" edge="1" parent="1" source="DGLDECt9-ov5wwd3O3Km-1" target="DGLDECt9-ov5wwd3O3Km-2">
          <mxGeometry relative="1" as="geometry" />
        </mxCell>
        <mxCell id="Nqncb38tdzn1ghxaWQQk-3" style="edgeStyle=orthogonalEdgeStyle;rounded=0;orthogonalLoop=1;jettySize=auto;html=1;entryX=0;entryY=0.5;entryDx=0;entryDy=0;fontSize=16;" edge="1" parent="1" source="DGLDECt9-ov5wwd3O3Km-1" target="DGLDECt9-ov5wwd3O3Km-4">
          <mxGeometry relative="1" as="geometry" />
        </mxCell>
        <mxCell id="DGLDECt9-ov5wwd3O3Km-1" value="推送" style="rounded=1;whiteSpace=wrap;html=1;fontSize=16;" parent="1" vertex="1">
          <mxGeometry x="780" y="179" width="80" height="40" as="geometry" />
        </mxCell>
        <mxCell id="Nqncb38tdzn1ghxaWQQk-1" style="edgeStyle=orthogonalEdgeStyle;rounded=0;orthogonalLoop=1;jettySize=auto;html=1;entryX=0.5;entryY=0;entryDx=0;entryDy=0;fontSize=16;" edge="1" parent="1" source="DGLDECt9-ov5wwd3O3Km-2" target="DGLDECt9-ov5wwd3O3Km-9">
          <mxGeometry relative="1" as="geometry" />
        </mxCell>
        <mxCell id="DGLDECt9-ov5wwd3O3Km-2" value="单播" style="rounded=1;whiteSpace=wrap;html=1;fontSize=16;" parent="1" vertex="1">
          <mxGeometry x="950" y="179" width="80" height="40" as="geometry" />
        </mxCell>
        <mxCell id="DGLDECt9-ov5wwd3O3Km-3" value="" style="shape=cylinder3;whiteSpace=wrap;html=1;boundedLbl=1;backgroundOutline=1;size=15;fontSize=16;" parent="1" vertex="1">
          <mxGeometry x="1150" y="210" width="60" height="80" as="geometry" />
        </mxCell>
        <mxCell id="DGLDECt9-ov5wwd3O3Km-10" style="edgeStyle=orthogonalEdgeStyle;rounded=0;orthogonalLoop=1;jettySize=auto;html=1;exitX=1;exitY=0.5;exitDx=0;exitDy=0;fontSize=16;" parent="1" source="DGLDECt9-ov5wwd3O3Km-4" target="DGLDECt9-ov5wwd3O3Km-9" edge="1">
          <mxGeometry relative="1" as="geometry" />
        </mxCell>
        <mxCell id="DGLDECt9-ov5wwd3O3Km-4" value="文件播" style="rounded=1;whiteSpace=wrap;html=1;fontSize=16;" parent="1" vertex="1">
          <mxGeometry x="950" y="269" width="80" height="40" as="geometry" />
        </mxCell>
        <mxCell id="DGLDECt9-ov5wwd3O3Km-7" value="厂商通道" style="rounded=1;whiteSpace=wrap;html=1;fontSize=16;" parent="1" vertex="1">
          <mxGeometry x="1070" y="545" width="80" height="40" as="geometry" />
        </mxCell>
        <mxCell id="DGLDECt9-ov5wwd3O3Km-11" style="edgeStyle=orthogonalEdgeStyle;rounded=0;orthogonalLoop=1;jettySize=auto;html=1;exitX=0.5;exitY=1;exitDx=0;exitDy=0;entryX=0.5;entryY=0;entryDx=0;entryDy=0;fontSize=16;" parent="1" source="DGLDECt9-ov5wwd3O3Km-9" target="DGLDECt9-ov5wwd3O3Km-7" edge="1">
          <mxGeometry relative="1" as="geometry" />
        </mxCell>
        <mxCell id="DGLDECt9-ov5wwd3O3Km-12" value="是" style="edgeLabel;html=1;align=center;verticalAlign=middle;resizable=0;points=[];fontSize=16;" parent="DGLDECt9-ov5wwd3O3Km-11" vertex="1" connectable="0">
          <mxGeometry x="-0.176" y="1" relative="1" as="geometry">
            <mxPoint as="offset" />
          </mxGeometry>
        </mxCell>
        <mxCell id="DGLDECt9-ov5wwd3O3Km-9" value="是否使用&lt;br&gt;厂商通道" style="rhombus;whiteSpace=wrap;html=1;fontSize=16;rounded=1;" parent="1" vertex="1">
          <mxGeometry x="1050" y="379" width="120" height="96" as="geometry" />
        </mxCell>
        <mxCell id="Nqncb38tdzn1ghxaWQQk-6" value="" style="shape=umlLifeline;perimeter=lifelinePerimeter;whiteSpace=wrap;html=1;container=0;dropTarget=0;collapsible=0;recursiveResize=0;outlineConnect=0;portConstraint=eastwest;newEdgeStyle={&quot;edgeStyle&quot;:&quot;elbowEdgeStyle&quot;,&quot;elbow&quot;:&quot;vertical&quot;,&quot;curved&quot;:0,&quot;rounded&quot;:0};participant=umlActor;fontSize=16;" vertex="1" parent="1">
          <mxGeometry x="80" y="80" width="20" height="630" as="geometry" />
        </mxCell>
        <mxCell id="Nqncb38tdzn1ghxaWQQk-9" value="" style="html=1;points=[];perimeter=orthogonalPerimeter;outlineConnect=0;targetShapes=umlLifeline;portConstraint=eastwest;newEdgeStyle={&quot;edgeStyle&quot;:&quot;elbowEdgeStyle&quot;,&quot;elbow&quot;:&quot;vertical&quot;,&quot;curved&quot;:0,&quot;rounded&quot;:0};strokeColor=default;fontSize=16;" vertex="1" parent="1">
          <mxGeometry x="270" y="120" width="10" height="600" as="geometry" />
        </mxCell>
        <mxCell id="Nqncb38tdzn1ghxaWQQk-10" value="推送" style="rounded=1;whiteSpace=wrap;html=1;fontSize=16;strokeColor=none;fillColor=none;" vertex="1" parent="1">
          <mxGeometry x="235" y="70" width="80" height="40" as="geometry" />
        </mxCell>
        <mxCell id="Nqncb38tdzn1ghxaWQQk-11" value="dispatch" style="html=1;verticalAlign=bottom;startArrow=oval;startFill=1;endArrow=block;startSize=8;edgeStyle=elbowEdgeStyle;elbow=vertical;curved=0;rounded=0;fontSize=16;" edge="1" parent="1" target="Nqncb38tdzn1ghxaWQQk-9">
          <mxGeometry width="60" relative="1" as="geometry">
            <mxPoint x="100" y="160" as="sourcePoint" />
            <mxPoint x="160" y="160" as="targetPoint" />
          </mxGeometry>
        </mxCell>
      </root>
    </mxGraphModel>
  </diagram>
</mxfile>
